<?xml version="1.0" encoding="utf-8"?>
<!-- Generator: Adobe Illustrator 22.0.0, SVG Export Plug-In . SVG Version: 6.00 Build 0)  -->
<svg version="1.1" id="Layer_1" xmlns="http://www.w3.org/2000/svg" xmlns:xlink="http://www.w3.org/1999/xlink" x="0px" y="0px"
	 viewBox="0 0 977.1 222.6" style="enable-background:new 0 0 977.1 222.6;" xml:space="preserve">
<style type="text/css">
	.st0{fill:#FFFFFF;}
</style>
<g>
	<path class="st0" d="M0,4.2h34.2v214.2H0V4.2z"/>
	<path class="st0" d="M174,193.5h-0.6c-9.3,19.8-21.6,29.1-46.8,29.1c-46.8,0-63.6-34.8-63.6-111.3C63,34.8,84.6,0,134.1,0
		c53.7,0,62.7,42.3,62.7,61.8v3.9h-32.4v-5.1c0-15.9-6.6-34.8-30-34.8c-24.3,0-37.2,16.2-37.2,84.6c0,69,11.4,86.4,34.5,86.4
		c26.1,0.3,35.7-18.6,35.7-65.4h-36v-25.8h68.4v112.8H174V193.5z"/>
	<path class="st0" d="M229.2,4.2h41.7L333,163.8h0.6V4.2H366v214.2h-41.7L262.2,54.6h-0.6v163.8h-32.4V4.2z"/>
	<path class="st0" d="M399.9,4.2h34.2v214.2h-34.2V4.2z"/>
	<path class="st0" d="M503.1,33h-51V4.2h135.3V33h-50.1v185.4h-34.2V33z"/>
	<path class="st0" d="M605.4,4.2h34.2v214.2h-34.2V4.2z"/>
	<path class="st0" d="M668.4,111.3C668.4,34.8,690,0,739.2,0C788.4,0,810,34.8,810,111.3c0,76.5-21.6,111.3-70.8,111.3
		C690,222.6,668.4,187.8,668.4,111.3z M775.8,110.4c0-72-16.2-84.6-36.6-84.6c-20.4,0-36.6,12.6-36.6,84.6
		c0,73.8,16.2,86.4,36.6,86.4C759.6,196.8,775.8,184.2,775.8,110.4z"/>
	<path class="st0" d="M840.3,4.2H882l62.1,159.6h0.6V4.2h32.4v214.2h-41.7L873.3,54.6h-0.6v163.8h-32.4V4.2z"/>
</g>
</svg>
