<?xml version="1.0" encoding="utf-8"?>
<!-- Generator: Adobe Illustrator 21.1.0, SVG Export Plug-In . SVG Version: 6.00 Build 0)  -->
<svg version="1.1" id="Layer_1" xmlns="http://www.w3.org/2000/svg" xmlns:xlink="http://www.w3.org/1999/xlink" x="0px" y="0px"
	 viewBox="0 0 162.8 113.4" enable-background="new 0 0 162.8 113.4" xml:space="preserve">
<g>
	<path fill-rule="evenodd" clip-rule="evenodd" fill="#FFFFFF" d="M108,82.5c-21.1-0.3-42.6,4.5-64.5,12.2c-2.7,1.5-2.1,4,0.3,4.1
		c25.9-11.4,74.2-17.6,89.6-0.8c0.3,0.3,0.7,0.6,1,0.6C139.2,97.5,146.5,82.9,108,82.5z"/>
	<g>
		<path fill-rule="evenodd" clip-rule="evenodd" fill="#FFFFFF" d="M22,68.5c-1.9,6.1-3.5,12.3-4.7,18.6c-1.4-6.8-2-14.4,1.2-17.8
			c1.4-1.5,2.9-2.7,4.4-3.7c0,0,0,0,0,0c0,0,0,0,0,0c9.7-6.5,20.8-4.3,27.4-8.8c1.5-1,1.6-2.5,1.8-3.8c0.2-1.8-0.3-3.6-4.2-5.1
			c-2.5-1-4.7-1.7-7.4-2.3c-1-0.2-1.6,2.1-1.2,2.3c6.1,1.1,8.5,2,3.7,2.9c-2.2,0.4-4.9,0.9-7.8,1.5c3.9-7.6,9.2-15,16.6-23.5
			c0.3-7.9-6.5-4.7-10.9,1.5c-3.1,4.4-6,9-8.5,13.6c-7.6-1.3-15.4-1.8-22.8-2.5c-2.6-0.3-2.9-1.1-1.3-2.3
			c20.7-15,59.7-24.8,64.4-18.6c16-26.5-39.4-6.1-50.1-0.3C10,26.9-2.6,35.9,0.5,40.8c2.3,3.7,8.7,3.4,12.7,3.8
			c5.3,0.5,11.9,1.2,17.8,2c-1.3,2.6-2.6,5.2-3.7,7.8c-9.8,3-18.9,8-16.5,16.1c2.9,10.1,5.1,18.8,4.6,28.8c0,7.6,7.3,15.9,11.6,13.7
			c-1.9-17.6-1.3-33.1,2.6-46.7C28.8,64.4,23,67.1,22,68.5z"/>
		<path fill-rule="evenodd" clip-rule="evenodd" fill="#FFFFFF" d="M154,41.1c-3.9,0.7-7,4.3-8.6,7.6c-5.6,0.3-9.6,5.7-11.7,12
			c-5.1,7.3-12.7,16.2-10.2,7.2c5.1-12.9,16.4-21.2,4.2-29.5c2.7-3.5,2-15.2-5.3-13c-2.3,0.7-4.1,3-2.3,7.8c0.4,1.1,0.8,2.3,1.4,3.4
			c-1.3,16.2-22.1,40.6-21.7,31.9c0.2-4.8,4.8-13,9.6-22.2c0.3-3.5-2.6-5.6-5.4-5.9l0,0c-2.3,2.6-26.9,39.4-25.2,27.4
			c1-7.1,6.8-15.7,11.7-23.6c0.3-4-3.4-6.4-6.8-5.4c-2.5,3.9-8.3,12.8-11.4,21.2c-4.3,7.5-7.9,14.9-12.6,18.2
			c-11.5,8,26.1-55,34.7-67.9C97.7,5,92.7-1.1,84.5,0.2C87.9,6.7,41.4,68,50.2,82.1c5.4,8.7,15.5-5.2,19.9-12.3
			c0.1,2.7,0.9,4.9,3,6.3c5.5,3.8,13.5-6.7,20.3-17c-3.3,7.8-4.5,15.4,2.1,17.5c1.1,0.4,2.5,0.7,4,0.3c8.5-1.8,21.5-23.6,25.4-36.1
			c5,6.3-7,18.6-9.4,26.6c-1.1,3.7-0.3,7.6,3.4,8.6c5,1.4,9.7-4.1,13.5-9.6c-0.8,6.2,0.4,12.2,4,14.1
			C159.4,93.3,172.7,39.2,154,41.1z M141.9,78.1c-2.9-2.4-2.4-13.6,0.9-18.9c0.2,3.2,4.3,7.3,6.8,6.1c-5.5-5.7-0.1-22.1,6-22.3
			C163.4,42.5,148.5,83.2,141.9,78.1z"/>
	</g>
</g>
</svg>
